Coordinates
version=1
nRows=18
nColumns=19
inDegrees=yes

Units are S.I. units (second, meters, Newtons, ...)
If the header above contains a line with 'inDegrees', this indicates whether rotational values are in degrees (yes) or radians (no).

endheader
time	pelvis_tilt	pelvis_list	pelvis_rotation	pelvis_tx	pelvis_ty	pelvis_tz	hip_flexion_r	hip_adduction_r	hip_rotation_r	knee_angle_r	knee_angle_r_beta	ankle_angle_r	hip_flexion_l	hip_adduction_l	hip_rotation_l	knee_angle_l	knee_angle_l_beta	ankle_angle_l
     16.44000000	    -10.79982347	      3.22640429	      6.12039486	      2.29314855	      1.00207743	      1.02907560	    -13.06952604	     -5.29651924	    -15.92962569	     66.27353864	      1.15669146	    -13.38667109	     36.56101655	      7.39422489	     -5.45944439	     14.06514033	      0.24548301	      2.55726286
     16.44666667	    -10.75943613	      2.99606643	      6.49188068	      2.29090816	      0.99823227	      1.02939125	    -11.12393035	     -4.58051819	    -14.53855368	     71.34418327	      1.24519090	    -13.51353076	     36.81960578	      7.26087071	     -5.28372675	     16.45395031	      0.28717561	      2.09716618
     16.45333333	    -10.76057103	      2.83376676	      6.96683619	      2.28847780	      0.99390441	      1.02982405	     -9.11530369	     -3.97672110	    -13.59744001	     76.26911123	      1.33114711	    -13.52296297	     37.29846664	      7.16589016	     -5.20051640	     19.53823180	      0.34100647	      1.84332481
     16.46000000	    -10.76390081	      2.74658855	      7.48735277	      2.28589869	      0.98913093	      1.03036366	     -7.08257746	     -3.55471253	    -13.03263930	     81.03514589	      1.41433011	    -13.34914568	     37.87860529	      7.10298120	     -5.13219733	     23.11258001	      0.40339062	      1.89834609
     16.46666667	    -10.74988312	      2.68848542	      8.04533532	      2.28314527	      0.98412211	      1.03087536	     -5.03082789	     -3.27052763	    -12.72783616	     85.59127608	      1.49384958	    -13.02023269	     38.46636638	      7.04583686	     -5.02164905	     26.95931530	      0.47052882	      2.23210984
     16.47333333	    -10.81161088	      2.70111887	      8.60278560	      2.28037425	      0.97885222	      1.03132410	     -2.87321711	     -3.23809498	    -12.64467697	     89.93951754	      1.56974071	    -12.45540834	     39.04011197	      7.06936418	     -4.77413675	     30.82948163	      0.53807596	      2.98311436
     16.48000000	    -10.90192654	      2.75508212	      9.12231145	      2.27752090	      0.97365126	      1.03163486	     -0.61618031	     -3.39911832	    -12.62880844	     94.04357665	      1.64137005	    -11.77964977	     39.49428053	      7.14435760	     -4.42009564	     34.56086469	      0.60320088	      4.11580254
     16.48666667	    -10.99821513	      2.85369681	      9.57650307	      2.27463982	      0.96872999	      1.03185882	      1.72465806	     -3.73774022	    -12.60524303	     97.87614233	      1.70826094	    -10.98666805	     39.74249703	      7.26800301	     -3.97098495	     38.01237411	      0.66344108	      5.63633410
     16.49333333	    -11.16308207	      2.99156491	      9.92615653	      2.27171288	      0.96422410	      1.03197195	      4.25358696	     -4.25587542	    -12.49009712	    101.42781809	      1.77024938	    -10.15740344	     39.80367586	      7.42962545	     -3.47833872	     41.07156011	      0.71683395	      7.47183421
     16.50000000	    -11.33251804	      3.15342430	     10.15261104	      2.26877405	      0.96037314	      1.03202790	      6.92447445	     -4.88892839	    -12.23170967	    104.65262988	      1.82653296	     -9.33339632	     39.57822288	      7.58147066	     -3.00278890	     43.66103362	      0.76202879	      9.52793697
     16.50666667	    -11.56436028	      3.31655801	     10.24822231	      2.26590983	      0.95718116	      1.03202760	      9.81683930	     -5.58256563	    -11.79020924	    107.52404949	      1.87664869	     -8.57157913	     39.10604938	      7.71435300	     -2.52580020	     45.73930989	      0.79830156	     11.75779366
     16.51333333	    -11.75723364	      3.45362872	     10.21566873	      2.26311851	      0.95482865	      1.03206018	     12.81927929	     -6.24598898	    -11.19224405	    109.98955573	      1.91967989	     -7.88798055	     38.29494317	      7.76252143	     -2.09959567	     47.30817407	      0.82568340	     14.01171042
     16.52000000	    -11.31798513	      3.65949073	     10.23264565	      2.26070785	      0.95409253	      1.03194981	     15.12396692	     -6.90982277	    -10.69795259	    111.87945578	      1.95266487	     -7.35715369	     36.46210733	      7.85359768	     -1.52434912	     48.32494179	      0.84342935	     16.25502055
     16.52666667	    -12.02492419	      3.63003397	      9.67951767	      2.25818156	      0.95264001	      1.03245764	     19.10614013	     -7.26486333	     -9.50239179	    113.58951173	      1.98251098	     -6.81495548	     35.62771365	      7.51175702	     -1.52684003	     48.86805990	      0.85290854	     18.26789895
     16.53333333	    -11.86904034	      3.70421235	      9.19170517	      2.25625579	      0.95306033	      1.03287733	     22.02651014	     -7.55620813	     -8.51917974	    114.63951450	      2.00083698	     -6.39258209	     33.53576974	      7.21215320	     -1.42924089	     48.87841415	      0.85308926	     20.08105511
     16.54000000	    -11.85711606	      3.63529466	      8.64141536	      2.25463218	      0.95395329	      1.03332278	     25.12686463	     -7.60601777	     -7.57116693	    115.20647451	      2.01073230	     -6.04389813	     31.37003457	      6.78682041	     -1.35774012	     48.45815674	      0.84575438	     21.56603913
     16.54666667	    -11.79375987	      3.47213877	      8.01232231	      2.25340364	      0.95548045	      1.03384506	     28.11312872	     -7.42927620	     -6.69736879	    115.28290549	      2.01206627	     -5.68326219	     28.94513851	      6.23398691	     -1.38168466	     47.65741737	      0.83177885	     22.68383819
     16.55333333	    -11.74051322	      3.22710172	      7.31599513	      2.25258099	      0.95754436	      1.03438925	     30.99685913	     -7.05287263	     -5.91665882	    114.87927923	      2.00502166	     -5.29590174	     26.34412991	      5.59279647	     -1.50554356	     46.49299974	      0.81145592	     23.33665740
